<svg width="102" height="58" viewBox="0 0 102 58" fill="none" xmlns="http://www.w3.org/2000/svg">
<path d="M74.4729 43.3321C72.1309 43.3321 70.2258 41.408 70.2258 39.0443C70.2258 36.6806 72.1309 34.7579 74.4729 34.7579C76.815 34.7579 78.7201 36.6806 78.7201 39.0443C78.7201 41.408 76.815 43.3321 74.4729 43.3321ZM27.5271 43.3321C25.185 43.3321 23.28 41.408 23.28 39.0443C23.28 36.6806 25.185 34.7579 27.5271 34.7579C29.8691 34.7579 31.7742 36.6806 31.7742 39.0443C31.7742 41.408 29.8691 43.3321 27.5271 43.3321ZM75.9962 17.5106L84.4849 2.67303C84.9716 1.82019 84.682 0.730857 83.8384 0.238356C82.9948 -0.252753 81.914 0.039407 81.426 0.890847L72.8312 15.9163C66.2585 12.8889 58.8767 11.2027 51 11.2027C43.1233 11.2027 35.7415 12.8889 29.1688 15.9163L20.574 0.890847C20.086 0.039407 19.0052 -0.252753 18.1616 0.238356C17.318 0.730857 17.0271 1.82019 17.5151 2.67303L26.0038 17.5106C11.4277 25.5117 1.45842 40.4049 0 58H102C100.54 40.4049 90.571 25.5117 75.9962 17.5106Z" fill="#FFFFFF"/>
</svg>
