<svg width="379" height="337" viewBox="0 0 379 337" fill="none" xmlns="http://www.w3.org/2000/svg">
<path d="M41.5 305C31.5 301.4 29.3334 291.167 29.5 286.5L17 290.5L23 278.5L11.5 281L23 244L17 247.5L26 207L18.5 209.5L31.5 175L26 176.5L42.5 149.5C38.2131 151.643 29.9881 155.925 28.6779 157.227C28.5627 157.481 28.5 157.581 28.5 157.5C28.5 157.435 28.5618 157.343 28.6779 157.227C29.9807 154.36 38 131.878 38 130.5C38 129.3 30 132.667 26 134.5L46.5 106C40.3333 107.5 28.1 110.2 28.5 109C28.9 107.8 38 98.1667 42.5 93.5C36.5 89 22.3 77.7 13.5 68.5C4.7 59.3 1.16667 29 0.5 15L63 68.5L54 53L63 59L72.5 46.5L80 53L85.5 30.5L92 40L95 26.5L103 34C103 34 96 -4 103 0.5C106.094 2.48917 115.913 9.05733 122 16C129.684 24.7634 133.5 34 133.5 34L144 26.5L149.5 34H162.5L160.5 40H179L173 48L189.5 53L185.5 57L191.5 68.5L189.5 72C189.5 72 237.5 126 248 136C258.5 146 300.5 169.5 310 177C317.6 183 335.5 189.5 343.5 192C345.333 190.833 351.4 190.3 361 197.5C370.6 204.7 374.667 223.5 375.5 232C376.833 244.167 379.1 269.9 377.5 275.5C375.5 282.5 365.5 286.5 357 286.5C350.2 286.5 342.833 285.167 340 284.5C340.333 285.833 341.5 290.2 343.5 297C346 305.5 343 309.5 335 315.5C327 321.5 314.5 321.5 300.5 319C289.3 317 279.167 308.833 275.5 305C273.5 302.833 265.7 297.6 250.5 294C235.3 290.4 210.833 287.5 200.5 286.5C199.167 289.167 195.9 296.6 193.5 305C191.1 313.4 190.167 326.167 190 331.5C186.667 332.667 175.9 335.3 159.5 336.5C139.319 337.977 117.684 330.246 103.659 325.235L103 325C91.8 321 72.3333 310 64 305C60.6667 306.5 51.5 308.6 41.5 305Z" fill="black"/>
</svg>
